<svg xmlns="http://www.w3.org/2000/svg" viewBox="0 0 40 40"><defs><style>.cls-1{fill:#fff;}.cls-2{fill:#38b358;}</style></defs><g id="Layer_2" data-name="Layer 2"><g id="books"><rect class="cls-1" width="40" height="40" rx="5"/><rect class="cls-2" x="14.4" y="24.92" width="5.87" height="3" rx="1.5"/><path class="cls-2" d="M19.34,34H14.55a1.73,1.73,0,0,1-1.73-1.74h0a1.73,1.73,0,0,1,1.73-1.74h4.94a4.17,4.17,0,0,0,4.13-3.24,4.1,4.1,0,0,0-4-5V18.84a7.59,7.59,0,0,1,7.51,8.58A7.76,7.76,0,0,1,19.34,34Z"/><path class="cls-1" d="M11.66,23.48v-5.8h8a2.94,2.94,0,0,0,2.87-3.58,3.07,3.07,0,0,0-3.1-2.31H11.66V6h7.72a8.88,8.88,0,0,1,8.78,6.94,8.76,8.76,0,0,1-8.55,10.54Z"/><rect class="cls-2" x="14.4" y="13.24" width="5.87" height="3" rx="1.5"/><path class="cls-2" d="M19.36,22.32H14.55a1.73,1.73,0,0,1-1.73-1.74h0a1.73,1.73,0,0,1,1.73-1.74h4.91a4.28,4.28,0,0,0,3-1.15,4.1,4.1,0,0,0,1.16-3.83,4.24,4.24,0,0,0-4.24-3.23H14.55A1.72,1.72,0,0,1,12.82,8.9h0a1.73,1.73,0,0,1,1.73-1.74h4.83a7.71,7.71,0,0,1,7.64,6,7.6,7.6,0,0,1-2.87,7.64A8,8,0,0,1,19.36,22.32Z"/></g></g></svg>