<svg xmlns="http://www.w3.org/2000/svg" viewBox="0 0 40 40"><defs><style>.cls-1{fill:#fff;}.cls-2{fill:#4073ff;}.cls-3{fill:#f75119;}.cls-4{fill:#ff7bac;}.cls-5{fill:#d23b15;}.cls-6{fill:#365cd9;}</style></defs><g id="Layer_2" data-name="Layer 2"><g id="creator"><g id="Main"><rect class="cls-1" width="40" height="40" rx="5"/><path class="cls-2" d="M24.21,28.07l-2.8,2.81a2,2,0,0,1-2.83,0L8.41,20.71a1,1,0,0,1,0-1.42L18.58,9.12a2,2,0,0,1,2.83,0l2.8,2.81a2,2,0,0,1,0,2.83l-4.53,4.53a1,1,0,0,0,0,1.42l4.53,4.53A2,2,0,0,1,24.21,28.07Z"/><rect class="cls-3" x="23.56" y="16.39" width="7.24" height="7.24" rx="1" transform="translate(60.55 14.95) rotate(135)"/><path class="cls-2" d="M24.21,28.07,21.4,30.88a2,2,0,0,1-2.83,0L8.4,20.71A1,1,0,0,1,8.11,20H19.38a1,1,0,0,0,.29.71l4.54,4.53A2,2,0,0,1,24.21,28.07Z"/><path class="cls-4" d="M31.88,20a1,1,0,0,1-.29.72l-3.71,3.71a1,1,0,0,1-1.41,0l-3.71-3.71a1,1,0,0,1-.29-.72Z"/><path class="cls-5" d="M31.88,20a1,1,0,0,1-.29.72l-3.71,3.71a1,1,0,0,1-1.41,0l-3.71-3.71a1,1,0,0,1-.29-.72Z"/><path class="cls-6" d="M24.21,25.24a2,2,0,0,1,0,2.83L21.4,30.88a2,2,0,0,1-2.83,0L8.4,20.71A1,1,0,0,1,8.11,20H19.38a1,1,0,0,0,.29.71Z"/></g></g></g></svg>