<svg xmlns="http://www.w3.org/2000/svg" viewBox="0 0 48 48"><defs><style>.cls-1{fill:#44cfb7;}.cls-2{fill:none;stroke:#002626;stroke-linecap:round;stroke-linejoin:round;}</style></defs><g id="Layer_2" data-name="Layer 2"><g id="hand_with_people" data-name="hand with people"><circle class="cls-1" cx="24" cy="24" r="24"/><path class="cls-2" d="M12.08,21h2.67a.79.79,0,0,1,.66.87V34.08c0,.48-.3.88-.66.88H12.08a.8.8,0,0,1-.67-.88V21.83A.79.79,0,0,1,12.08,21Z"/><path class="cls-2" d="M20,26.64l4.4,4.4a1.72,1.72,0,0,0,1.19.49A1.67,1.67,0,0,0,26.8,31a1.66,1.66,0,0,0,.28-2,1.48,1.48,0,0,0-.28-.39l-3.36-3.36L21.7,23.58a1,1,0,0,0-.7-.29H15.41"/><path class="cls-2" d="M15.41,33.29H27a1,1,0,0,0,.7-.3l8.4-8.4a1.61,1.61,0,0,0-2.2-2.34l-.39.39-.07.07-6.36,6.36"/><path class="cls-2" d="M31.74,21A5.17,5.17,0,0,0,30.5,18.8,4.88,4.88,0,0,0,27,17.27a5,5,0,0,0-4.78,3.66"/><circle class="cls-2" cx="26.99" cy="13.04" r="2"/></g></g></svg>