<svg xmlns="http://www.w3.org/2000/svg" viewBox="0 0 48 48"><defs><style>.cls-1{fill:#44cfb7;}.cls-2{fill:none;stroke:#002626;stroke-linecap:round;stroke-linejoin:round;}</style></defs><g id="Layer_2" data-name="Layer 2"><g id="handshake"><circle class="cls-1" cx="24" cy="24" r="24"/><rect class="cls-2" x="5.29" y="15.62" width="14.46" height="4.82" transform="translate(-9.08 14.13) rotate(-45)"/><rect class="cls-2" x="33.08" y="9.92" width="4.82" height="14.46" transform="translate(-1.73 30.11) rotate(-45)"/><path class="cls-2" d="M24.76,34.81a1.73,1.73,0,0,1,.15,2.42,1.55,1.55,0,0,1-1.18.44,2,2,0,0,1-1.24-.58S14.27,30,11.88,25.76L10,23.92"/><path class="cls-2" d="M20.46,30.52,22,32.08l2.34,2.34.78.78a2.68,2.68,0,0,0,1.44.78,1.41,1.41,0,0,0,1.26-.35,2,2,0,0,0-.43-2.7"/><path class="cls-2" d="M23.87,29.38l2.56,2.56,1.28,1.27a1.89,1.89,0,0,0,1.23.58,1.53,1.53,0,0,0,1.18-.43A1.73,1.73,0,0,0,30,30.94"/><line class="cls-2" x1="22.51" y1="16.39" x2="18.38" y2="15.57"/><path class="cls-2" d="M25,19.7v1.07a1.61,1.61,0,0,0,.47,1.13l6.91,6.91a1.93,1.93,0,0,1,.22.28,1.62,1.62,0,0,1-.22,2,1.64,1.64,0,0,1-1.14.47,1.6,1.6,0,0,1-1.13-.47l-.57-.57-2.84-2.84"/><path class="cls-2" d="M28.42,20.3a5.46,5.46,0,0,1-2.28,0A3.09,3.09,0,0,1,25,19.7c-.21-.12-.37-.16-.57,0a7.26,7.26,0,0,1-2.84,1.7c-1.27.5-2.71.7-3.41,0a1.31,1.31,0,0,1,.29-2.2c1.56-1.05,3-2.07,4-2.84a19.74,19.74,0,0,1,1.66-1.07,1.62,1.62,0,0,1,.57-.16l4.91-.45"/><path class="cls-2" d="M38.18,23.25l-.63,1.36A8.2,8.2,0,0,1,34,28.37l-1.36.72"/></g></g></svg>