<svg xmlns="http://www.w3.org/2000/svg" viewBox="0 0 40 40"><defs><style>.cls-1,.cls-2{fill:#fff;}.cls-2{stroke:#48d374;stroke-miterlimit:10;stroke-width:3px;}.cls-3{fill:#4073ff;}</style></defs><g id="Layer_2" data-name="Layer 2"><g id="helpdesk_v2" data-name="helpdesk v2"><rect class="cls-1" width="40" height="40" rx="5"/><path class="cls-2" d="M20,8h0A12,12,0,0,1,32,20v0A12,12,0,0,1,20,32H9a1,1,0,0,1-1-1V20A12,12,0,0,1,20,8Z"/><path class="cls-3" d="M25,15.3l.71.71a1,1,0,0,1,0,1.41l-7.43,7.43a.5.5,0,0,1-.7,0l-3.19-3.19a1,1,0,0,1,0-1.41l.71-.71a1,1,0,0,1,1.41,0l1.07,1.06a.48.48,0,0,0,.7,0l5.31-5.3A1,1,0,0,1,25,15.3Z"/><path class="cls-3" d="M6.5,30.5h3a0,0,0,0,1,0,0v3a0,0,0,0,1,0,0H9A2.5,2.5,0,0,1,6.5,31v-.5A0,0,0,0,1,6.5,30.5Z"/></g></g></svg>