<svg xmlns="http://www.w3.org/2000/svg" viewBox="0 0 40 40"><defs><style>.cls-1{fill:#fff;}.cls-2{fill:#e64b17;}.cls-3{fill:#fbbc04;}.cls-4{fill:#4073ff;}</style></defs><g id="Layer_2" data-name="Layer 2"><g id="one"><rect class="cls-1" width="40" height="40" rx="5"/><path class="cls-2" d="M21.51,20.81l8-4.46a1,1,0,0,1,1.49.87v9.12a1,1,0,0,1-.5.87l-8,4.56a1,1,0,0,1-1.5-.86V21.69A1,1,0,0,1,21.51,20.81Z"/><path class="cls-1" d="M27.26,21h0a.5.5,0,0,1,.74.44v3.41a.5.5,0,0,1-.25.43l-3,1.72A.5.5,0,0,1,24,26.6h0A6.37,6.37,0,0,1,27.26,21Z"/><path class="cls-3" d="M9,26.34V17.22a1,1,0,0,1,1.49-.87l8,4.46a1,1,0,0,1,.51.88v9.22a1,1,0,0,1-1.5.86l-8-4.56A1,1,0,0,1,9,26.34Z"/><path class="cls-1" d="M12,24.89V21.48a.5.5,0,0,1,.74-.44h0A6.37,6.37,0,0,1,16,26.59h0a.5.5,0,0,1-.75.44l-3-1.72A.5.5,0,0,1,12,24.89Z"/><path class="cls-4" d="M11.52,12.91l8-4.68a1,1,0,0,1,1,0l7.93,4.68a1,1,0,0,1,0,1.73l-7.93,4.45a1,1,0,0,1-1,0l-8-4.45A1,1,0,0,1,11.52,12.91Z"/><path class="cls-1" d="M16.8,13.28l2.94-1.72a.52.52,0,0,1,.51,0l2.92,1.73a.49.49,0,0,1,0,.86h0a6.48,6.48,0,0,1-6.34,0h0A.51.51,0,0,1,16.8,13.28Z"/></g></g></svg>