<svg xmlns="http://www.w3.org/2000/svg" xmlns:xlink="http://www.w3.org/1999/xlink" viewBox="0 0 40 40"><defs><style>.cls-1{fill:#fff;}.cls-2{fill:url(#linear-gradient);}</style><linearGradient id="linear-gradient" x1="20" y1="3.28" x2="20" y2="39.86" gradientUnits="userSpaceOnUse"><stop offset="0" stop-color="#3fc3f5"/><stop offset="0.05" stop-color="#3fb5f7"/><stop offset="0.16" stop-color="#4098fa"/><stop offset="0.27" stop-color="#4084fd"/><stop offset="0.38" stop-color="#4077fe"/><stop offset="0.49" stop-color="#4073ff"/><stop offset="0.61" stop-color="#3e70ff"/><stop offset="0.7" stop-color="#3966ff"/><stop offset="0.78" stop-color="#2f55ff"/><stop offset="0.86" stop-color="#223eff"/><stop offset="0.94" stop-color="#1220ff"/><stop offset="1" stop-color="blue"/></linearGradient></defs><g id="Layer_2" data-name="Layer 2"><g id="people"><rect class="cls-1" width="40" height="40" rx="5"/><path class="cls-2" d="M28.93,21.87,25.25,24A2.51,2.51,0,0,0,24,26.16V30.4a4,4,0,0,1-4.39,4A4.13,4.13,0,0,1,16,30.23V26.16A2.51,2.51,0,0,0,14.75,24l-3.68-2.12a4,4,0,0,1-1.35-5.65,4.15,4.15,0,0,1,5.55-1.17l3.48,2a2.48,2.48,0,0,0,2.5,0l3.48-2a4.15,4.15,0,0,1,5.55,1.17A4,4,0,0,1,28.93,21.87ZM24,9.6h0a4,4,0,0,0-4-4h0a4,4,0,0,0-4,4h0a4,4,0,0,0,4,4h0A4,4,0,0,0,24,9.6Z"/><rect class="cls-1" x="18" y="20.4" width="4" height="4" rx="2"/></g></g></svg>