<svg xmlns="http://www.w3.org/2000/svg" viewBox="0 0 48 48"><defs><style>.cls-1{fill:#44cfb7;}.cls-2{fill:none;stroke:#002626;stroke-linecap:round;stroke-linejoin:round;}</style></defs><g id="Layer_2" data-name="Layer 2"><g id="shield"><rect class="cls-1" width="48" height="48" rx="24"/><path class="cls-2" d="M24,10.83a22.16,22.16,0,0,1-12,5.81V25.4a14.31,14.31,0,0,0,2.48,8.29A17.84,17.84,0,0,0,24,40.83a17.84,17.84,0,0,0,9.52-7.14A14.31,14.31,0,0,0,36,25.4V16.64A22.16,22.16,0,0,1,24,10.83Z"/><path class="cls-2" d="M24,37.69A15.64,15.64,0,0,1,16.93,32,11.31,11.31,0,0,1,15,25.4V19.09a25,25,0,0,0,9-4.34,25,25,0,0,0,9,4.34V25.4A11.31,11.31,0,0,1,31.07,32,15.64,15.64,0,0,1,24,37.69Z"/><polyline class="cls-2" points="21 26.22 23 28.22 27 24.22"/></g></g></svg>