<svg xmlns="http://www.w3.org/2000/svg" viewBox="0 0 20 20"><defs><style>.cls-1{fill:#fff;}.cls-2{fill:#4073ff;}.cls-3{fill:none;stroke:#4073ff;stroke-linecap:round;stroke-linejoin:round;stroke-width:1.6px;}</style></defs><g id="Layer_2" data-name="Layer 2"><g id="zoho_main_3pt" data-name="zoho main 3pt"><path class="cls-1" d="M2.5,19.2A1.7,1.7,0,0,1,.8,17.5V2.5A1.7,1.7,0,0,1,2.5.8H17A2.21,2.21,0,0,1,19.2,3V17.5a1.7,1.7,0,0,1-1.7,1.7Z"/><path class="cls-2" d="M17,1.6A1.4,1.4,0,0,1,18.4,3V17.5a.9.9,0,0,1-.9.9H2.5a.9.9,0,0,1-.9-.9V2.5a.9.9,0,0,1,.9-.9H17M17,0H2.5A2.5,2.5,0,0,0,0,2.5v15A2.5,2.5,0,0,0,2.5,20h15A2.5,2.5,0,0,0,20,17.5V3a3,3,0,0,0-3-3Z"/><polyline class="cls-3" points="6 6 14 6 6 14 14 14"/></g></g></svg>