<svg xmlns="http://www.w3.org/2000/svg" viewBox="0 0 92 32"><defs><style>.cls-1,.cls-3,.cls-5,.cls-7,.cls-9{fill:#fff;}.cls-2{fill:#4073ff;}.cls-3{stroke:#4073ff;}.cls-3,.cls-5,.cls-7,.cls-9{stroke-linecap:round;stroke-linejoin:round;stroke-width:1.6px;}.cls-4{fill:#fbbc04;}.cls-5{stroke:#fbbc04;}.cls-6{fill:#e64b17;}.cls-7{stroke:#e64b17;}.cls-8{fill:#34a652;}.cls-9{stroke:#34a652;}</style></defs><g id="Layer_2" data-name="Layer 2"><g id="zoho_main_3pt" data-name="zoho main 3pt"><rect class="cls-1" width="92" height="32"/><path class="cls-1" d="M6.92,27.07a1.7,1.7,0,0,1-1.7-1.7v-15a1.7,1.7,0,0,1,1.7-1.7h14.5a2.21,2.21,0,0,1,2.2,2.2v14.5a1.7,1.7,0,0,1-1.7,1.7Z"/><path class="cls-2" d="M21.42,9.47a1.4,1.4,0,0,1,1.4,1.4v14.5a.9.9,0,0,1-.9.9h-15a.9.9,0,0,1-.9-.9v-15a.9.9,0,0,1,.9-.9h14.5m0-1.6H6.92a2.5,2.5,0,0,0-2.5,2.5v15a2.5,2.5,0,0,0,2.5,2.5h15a2.5,2.5,0,0,0,2.5-2.5V10.87a3,3,0,0,0-3-3Z"/><polyline class="cls-3" points="10.42 13.87 18.42 13.87 10.42 21.87 18.42 21.87"/><path class="cls-1" d="M70.08,27a1.7,1.7,0,0,1-1.7-1.7V10.77a2.21,2.21,0,0,1,2.2-2.2h14a2.21,2.21,0,0,1,2.2,2.2v14.5a1.7,1.7,0,0,1-1.7,1.7Z"/><path class="cls-4" d="M84.58,9.37a1.4,1.4,0,0,1,1.4,1.4v14.5a.9.9,0,0,1-.9.9h-15a.9.9,0,0,1-.9-.9V10.77a1.4,1.4,0,0,1,1.4-1.4h14m0-1.6h-14a3,3,0,0,0-3,3v14.5a2.5,2.5,0,0,0,2.5,2.5h15a2.5,2.5,0,0,0,2.5-2.5V10.77a3,3,0,0,0-3-3Z"/><circle class="cls-5" cx="77.58" cy="17.77" r="4"/><path class="cls-1" d="M50.08,27.12a1.7,1.7,0,0,1-1.7-1.7V10.92a2.21,2.21,0,0,1,2.2-2.2h14a2.21,2.21,0,0,1,2.2,2.2v14.5a1.7,1.7,0,0,1-1.7,1.7Z"/><path class="cls-6" d="M64.58,9.52a1.4,1.4,0,0,1,1.4,1.4v14.5a.9.9,0,0,1-.9.9h-15a.9.9,0,0,1-.9-.9V10.92a1.4,1.4,0,0,1,1.4-1.4h14m0-1.6h-14a3,3,0,0,0-3,3v14.5a2.5,2.5,0,0,0,2.5,2.5h15a2.5,2.5,0,0,0,2.5-2.5V10.92a3,3,0,0,0-3-3Z"/><line class="cls-7" x1="54.08" y1="13.42" x2="54.08" y2="22.22"/><line class="cls-7" x1="61.08" y1="13.62" x2="61.08" y2="22.42"/><line class="cls-7" x1="54.08" y1="18.02" x2="61.07" y2="18.02"/><path class="cls-1" d="M31.4,27.24a1.71,1.71,0,0,1-1.6-1.12l-5-13.62a2.22,2.22,0,0,1,.07-1.68,2.16,2.16,0,0,1,1.25-1.14L39.31,4.89a2.21,2.21,0,0,1,2.82,1.32l5,13.62a1.63,1.63,0,0,1-.06,1.3,1.71,1.71,0,0,1-1,.88L32,27.14A1.65,1.65,0,0,1,31.4,27.24Z"/><path class="cls-8" d="M40.06,5.56a1.41,1.41,0,0,1,1.32.92l5,13.62a.92.92,0,0,1,0,.69.88.88,0,0,1-.51.47L31.71,26.39a1.12,1.12,0,0,1-.31.05.91.91,0,0,1-.85-.59l-5-13.63a1.42,1.42,0,0,1,.05-1.07,1.43,1.43,0,0,1,.79-.72L39.59,5.64a1.5,1.5,0,0,1,.47-.08m0-1.6a3,3,0,0,0-1,.18L25.88,8.93a3,3,0,0,0-1.79,3.84l5,13.63A2.51,2.51,0,0,0,31.4,28a2.54,2.54,0,0,0,.85-.15l14.1-5.13a2.49,2.49,0,0,0,1.49-3.2l-5-13.63a3,3,0,0,0-2.82-2Z"/><circle class="cls-9" cx="35.88" cy="15.93" r="4"/></g></g></svg>