<svg width="21" height="21" viewBox="0 0 21 21" fill="none" xmlns="http://www.w3.org/2000/svg">
<path d="M10.5625 1C8.67122 1 6.82241 1.56083 5.24986 2.61157C3.67732 3.66231 2.45167 5.15577 1.72791 6.90309C1.00414 8.65041 0.814774 10.5731 1.18375 12.4281C1.55272 14.283 2.46346 15.9869 3.8008 17.3242C5.13814 18.6615 6.84201 19.5723 8.69695 19.9413C10.5519 20.3102 12.4746 20.1209 14.2219 19.3971C15.9692 18.6733 17.4627 17.4477 18.5134 15.8751C19.5642 14.3026 20.125 12.4538 20.125 10.5625C20.122 8.02728 19.1136 5.59675 17.3209 3.80408C15.5283 2.01141 13.0977 1.00298 10.5625 1ZM18.9813 10H14.8638C14.7559 7.12 13.8241 4.39094 12.2444 2.29375C14.0554 2.66502 15.6948 3.61966 16.9116 5.01149C18.1283 6.40332 18.8553 8.1556 18.9813 10ZM10.5625 19C10.5391 19.0001 10.516 18.9953 10.4947 18.9857C10.4733 18.9762 10.4542 18.9622 10.4388 18.9447C8.605 16.9694 7.50813 14.1447 7.38625 11.125H13.7378C13.6169 14.1447 12.5191 16.9694 10.6863 18.9447C10.6708 18.9622 10.6517 18.9762 10.6304 18.9857C10.609 18.9953 10.5859 19.0001 10.5625 19ZM7.38625 10C7.50813 6.98031 8.605 4.15562 10.4388 2.18031C10.4543 2.16289 10.4734 2.14895 10.4947 2.1394C10.516 2.12986 10.5391 2.12492 10.5625 2.12492C10.5859 2.12492 10.609 2.12986 10.6303 2.1394C10.6516 2.14895 10.6707 2.16289 10.6863 2.18031C12.52 4.15562 13.6169 6.98031 13.7378 10H7.38625ZM8.88063 2.29375C7.30094 4.39094 6.36907 7.12 6.26125 10H2.14375C2.26968 8.1556 2.99668 6.40332 4.21343 5.01149C5.43018 3.61966 7.0696 2.66502 8.88063 2.29375ZM2.14375 11.125H6.26125C6.36907 14.005 7.30094 16.7341 8.88063 18.8312C7.0696 18.46 5.43018 17.5053 4.21343 16.1135C2.99668 14.7217 2.26968 12.9694 2.14375 11.125ZM12.2444 18.8312C13.8241 16.7341 14.7559 14.005 14.8638 11.125H18.9813C18.8553 12.9694 18.1283 14.7217 16.9116 16.1135C15.6948 17.5053 14.0554 18.46 12.2444 18.8312Z" fill="#212121" stroke="#212121" stroke-width="0.4"/>
</svg>
